<?xml version="1.0" standalone="no"?>
<!DOCTYPE svg PUBLIC "-//W3C//DTD SVG 20010904//EN"
 "http://www.w3.org/TR/2001/REC-SVG-20010904/DTD/svg10.dtd">
<svg version="1.0" xmlns="http://www.w3.org/2000/svg"
 width="1280.000000pt" height="836.000000pt" viewBox="0 0 1280.000000 836.000000"
 preserveAspectRatio="xMidYMid meet">
<g transform="translate(0.000000,836.000000) scale(0.100000,-0.100000)"
fill="#000000" stroke="none">
<path d="M6075 8348 c-38 -4 -131 -15 -205 -24 -516 -59 -1013 -253 -1398
-544 -149 -113 -233 -190 -345 -315 -260 -292 -430 -664 -465 -1014 -5 -50
-12 -76 -22 -82 -8 -4 -73 -15 -144 -24 -407 -53 -785 -211 -1105 -464 -110
-86 -292 -277 -373 -392 -123 -172 -233 -411 -278 -604 -31 -132 -41 -212 -48
-380 l-7 -160 -114 -8 c-444 -29 -869 -224 -1158 -531 -247 -262 -388 -591
-410 -956 -6 -95 35 -335 78 -463 103 -309 318 -586 604 -779 237 -159 547
-271 820 -294 44 -4 85 -11 92 -16 7 -5 17 -26 24 -46 6 -20 27 -67 45 -104
205 -418 652 -632 1101 -528 151 36 266 93 397 199 l68 55 32 -39 c370 -467
877 -737 1531 -817 404 -49 905 47 1295 248 174 89 399 252 515 373 43 46 63
50 90 21 30 -33 156 -115 244 -159 194 -98 380 -136 616 -128 339 11 632 138
862 374 76 77 188 236 223 316 12 26 25 47 29 47 5 0 61 -23 125 -50 298 -128
580 -184 921 -184 281 0 498 33 748 115 145 47 386 163 512 246 547 361 865
916 865 1509 l0 114 40 28 c241 164 458 366 582 542 163 230 268 494 313 780
34 215 32 275 -16 545 -131 728 -770 1340 -1584 1515 -254 54 -600 67 -844 31
l-124 -19 -114 103 c-354 321 -766 508 -1251 569 l-97 12 -51 94 c-71 133
-129 220 -221 335 -403 501 -1076 846 -1808 929 -77 9 -174 21 -215 26 -88 12
-276 11 -375 -2z"/>
</g>
</svg>
